<svg version="1.1" id="Layer_1" xmlns="http://www.w3.org/2000/svg" x="0" y="0" viewBox="0 0 458 258" style="enable-background:new 0 0 458 258" xml:space="preserve"><style>.st1{enable-background:new}</style><g id="Layer_2_1_"><path d="M127.498 131.833c0 11.964.022 23.928-.006 35.892-.029 12.264-7.704 20.039-19.884 20.058-23.665.038-47.331.034-70.996.001-12.321-.017-20.327-8.159-20.329-20.566-.004-23.797-.006-47.594.001-71.391.004-12.019 8.227-20.296 20.244-20.309 23.665-.025 47.331-.024 70.996 0 12.115.012 19.936 7.863 19.968 20.027.03 12.097.006 24.193.006 36.288zm-11.068 31.925c-.096-6.817-5.964-12.464-12.775-12.294-6.689.166-12.243 5.799-12.262 12.434-.019 6.79 5.782 12.539 12.598 12.486 6.862-.053 12.535-5.811 12.439-12.626zm-12.581-43.979c-6.863.032-12.565 5.797-12.455 12.594.107 6.662 5.702 12.201 12.404 12.279 6.845.08 12.619-5.6 12.63-12.424.012-6.838-5.691-12.482-12.579-12.449zm-51.217 44.057c-.038-6.869-5.779-12.487-12.639-12.367-6.7.117-12.257 5.69-12.323 12.356-.067 6.8 5.67 12.56 12.508 12.56 6.896-.001 12.492-5.64 12.454-12.549zm50.917-49.429c6.969.166 12.711-5.227 12.876-12.096.164-6.834-5.43-12.59-12.325-12.68-6.9-.091-12.655 5.49-12.709 12.326-.054 6.677 5.427 12.289 12.158 12.45zm-31.476 37.056c-6.877-.01-12.493 5.644-12.462 12.545.031 6.878 5.751 12.487 12.62 12.376 6.716-.109 12.244-5.647 12.313-12.336.071-6.828-5.625-12.576-12.471-12.585zm-19.441-49.585c-.07-6.89-5.756-12.369-12.705-12.242-6.714.123-12.248 5.7-12.269 12.365-.021 6.86 5.636 12.436 12.586 12.407 6.977-.031 12.458-5.575 12.388-12.53zm0 30.297c-.014-6.908-5.638-12.454-12.571-12.397-6.713.055-12.281 5.56-12.391 12.251-.112 6.798 5.596 12.588 12.443 12.621 6.904.033 12.533-5.576 12.519-12.475zm19.518-17.768c6.944-.04 12.533-5.701 12.4-12.561-.13-6.733-5.647-12.168-12.395-12.213-6.943-.047-12.538 5.484-12.544 12.401-.006 6.932 5.549 12.413 12.539 12.373zm-.134 5.37c-6.918.025-12.469 5.646-12.403 12.559.065 6.887 5.796 12.454 12.674 12.31 6.728-.141 12.228-5.697 12.258-12.386.031-6.852-5.645-12.507-12.529-12.483z" style="fill:#fb2"/><g class="st1"><path d="M174.126 130.667h-5.177l-4.23-11.188h-16.922l-3.98 11.188h-5.204l15.308-39.911h4.843l15.362 39.911zm-10.938-15.391-6.262-17.005c-.204-.557-.408-1.447-.612-2.672h-.111c-.186 1.132-.399 2.022-.64 2.672l-6.207 17.005h13.832zM183.093 126.548h-.111v17.229h-4.564v-41.609h4.564v5.01h.111c2.245-3.785 5.529-5.678 9.853-5.678 3.674 0 6.541 1.276 8.6 3.827 2.061 2.551 3.09 5.97 3.09 10.256 0 4.769-1.16 8.586-3.479 11.453-2.32 2.866-5.493 4.3-9.52 4.3-3.693-.001-6.54-1.597-8.544-4.788zm-.112-11.495v3.98c0 2.356.766 4.355 2.296 5.998 1.531 1.642 3.475 2.463 5.831 2.463 2.765 0 4.931-1.058 6.499-3.173 1.567-2.115 2.352-5.056 2.352-8.823 0-3.173-.733-5.659-2.199-7.459-1.466-1.799-3.451-2.7-5.955-2.7-2.654 0-4.787.923-6.402 2.77-1.614 1.847-2.422 4.161-2.422 6.944zM215.634 126.548h-.111v17.229h-4.564v-41.609h4.564v5.01h.111c2.245-3.785 5.529-5.678 9.853-5.678 3.674 0 6.541 1.276 8.6 3.827 2.061 2.551 3.09 5.97 3.09 10.256 0 4.769-1.16 8.586-3.479 11.453-2.32 2.866-5.493 4.3-9.52 4.3-3.693-.001-6.54-1.597-8.544-4.788zm-.112-11.495v3.98c0 2.356.766 4.355 2.296 5.998 1.531 1.642 3.475 2.463 5.831 2.463 2.765 0 4.931-1.058 6.499-3.173 1.567-2.115 2.352-5.056 2.352-8.823 0-3.173-.733-5.659-2.199-7.459-1.466-1.799-3.451-2.7-5.955-2.7-2.654 0-4.787.923-6.402 2.77-1.614 1.847-2.422 4.161-2.422 6.944zM248.063 130.667h-4.564V88.474h4.564v42.193zM258.672 94.931c-.816 0-1.513-.278-2.087-.835-.576-.557-.863-1.262-.863-2.115s.287-1.563.863-2.129a2.865 2.865 0 0 1 2.087-.849c.835 0 1.545.283 2.129.849.585.566.877 1.276.877 2.129 0 .817-.292 1.513-.877 2.087-.584.575-1.294.863-2.129.863zm2.226 35.736h-4.564v-28.5h4.564v28.5zM288.597 129.358c-2.189 1.317-4.787 1.977-7.793 1.977-4.063 0-7.344-1.322-9.839-3.966-2.495-2.645-3.743-6.072-3.743-10.284 0-4.694 1.345-8.465 4.035-11.313s6.281-4.272 10.771-4.272c2.505 0 4.713.464 6.624 1.392v4.676c-2.115-1.484-4.379-2.227-6.791-2.227-2.913 0-5.302 1.044-7.167 3.131-1.864 2.088-2.797 4.829-2.797 8.225 0 3.34.877 5.975 2.63 7.904 1.754 1.93 4.105 2.895 7.056 2.895 2.486 0 4.824-.825 7.014-2.477v4.339zM314.932 130.667h-4.564v-4.453h-.111c-1.986 3.414-4.908 5.121-8.768 5.121-2.839 0-5.062-.752-6.666-2.254-1.604-1.504-2.407-3.498-2.407-5.984 0-5.325 3.136-8.423 9.407-9.296l8.545-1.197c0-4.843-1.958-7.264-5.873-7.264-3.433 0-6.531 1.169-9.296 3.507v-4.676c2.802-1.781 6.03-2.672 9.686-2.672 6.698 0 10.048 3.544 10.048 10.632v18.536h-.001zm-4.565-14.417-6.875.946c-2.115.297-3.711.821-4.787 1.572-1.076.752-1.614 2.083-1.614 3.994 0 1.392.496 2.528 1.489 3.409.992.882 2.314 1.322 3.966 1.322 2.264 0 4.133-.793 5.608-2.38 1.475-1.586 2.213-3.594 2.213-6.025v-2.838zM335.782 130.389c-1.076.594-2.495.891-4.258.891-4.991 0-7.486-2.783-7.486-8.35v-16.866h-4.898v-3.896h4.898V95.21l4.564-1.475v8.433h7.18v3.896h-7.18v16.059c0 1.911.324 3.275.974 4.091s1.726 1.225 3.229 1.225c1.15 0 2.144-.315 2.978-.946v3.896h-.001zM343.246 94.931c-.816 0-1.513-.278-2.087-.835-.576-.557-.863-1.262-.863-2.115s.287-1.563.863-2.129a2.865 2.865 0 0 1 2.087-.849c.835 0 1.545.283 2.129.849.585.566.877 1.276.877 2.129 0 .817-.292 1.513-.877 2.087-.584.575-1.294.863-2.129.863zm2.227 35.736h-4.564v-28.5h4.564v28.5zM365.656 131.335c-4.212 0-7.575-1.331-10.089-3.994-2.515-2.662-3.771-6.192-3.771-10.59 0-4.787 1.309-8.526 3.924-11.216 2.617-2.69 6.151-4.036 10.604-4.036 4.249 0 7.565 1.308 9.95 3.924 2.384 2.616 3.576 6.244 3.576 10.882 0 4.546-1.285 8.188-3.854 10.924-2.57 2.738-6.017 4.106-10.34 4.106zm.334-25.995c-2.932 0-5.251.998-6.958 2.992s-2.561 4.745-2.561 8.252c0 3.377.863 6.04 2.588 7.988 1.727 1.948 4.036 2.922 6.931 2.922 2.95 0 5.219-.956 6.805-2.867 1.587-1.911 2.38-4.629 2.38-8.155 0-3.562-.793-6.308-2.38-8.238-1.586-1.929-3.855-2.894-6.805-2.894zM409.831 130.667h-4.564v-16.254c0-6.049-2.208-9.073-6.624-9.073-2.282 0-4.171.858-5.664 2.574-1.493 1.717-2.24 3.883-2.24 6.499v16.254h-4.564v-28.5h4.564v4.731h.111c2.152-3.6 5.27-5.399 9.352-5.399 3.117 0 5.501 1.007 7.153 3.02 1.65 2.014 2.477 4.922 2.477 8.726l-.001 17.422z"/></g><g id="Virtualization"><path d="m172.901 147.87-14.779 39.911h-5.149L138.5 147.87h5.205l11.049 31.646c.352 1.021.622 2.198.807 3.534h.111c.148-1.113.455-2.31.918-3.591l11.272-31.589h5.039zM178.936 152.045c-.817 0-1.513-.278-2.087-.835-.575-.557-.863-1.262-.863-2.115s.288-1.562.863-2.129a2.866 2.866 0 0 1 2.087-.849c.835 0 1.545.282 2.129.849.585.566.877 1.275.877 2.129 0 .816-.292 1.513-.877 2.087-.585.576-1.294.863-2.129.863zm2.226 35.736h-4.564v-28.5h4.564v28.5zM203.402 163.901c-.798-.612-1.948-.919-3.451-.919-1.948 0-3.576.919-4.885 2.756-1.308 1.837-1.962 4.342-1.962 7.515v14.528h-4.564v-28.5h4.564v5.873h.111c.649-2.004 1.642-3.567 2.978-4.69 1.336-1.122 2.829-1.684 4.481-1.684 1.187 0 2.097.13 2.728.39v4.731zM221.589 187.503c-1.076.594-2.496.891-4.258.891-4.992 0-7.487-2.783-7.487-8.35v-16.866h-4.898v-3.896h4.898v-6.958l4.564-1.476v8.434h7.181v3.896h-7.181v16.059c0 1.912.324 3.275.974 4.092.649.816 1.726 1.225 3.229 1.225 1.15 0 2.143-.315 2.978-.946v3.895zM249.304 187.781h-4.564v-4.509h-.111c-1.893 3.451-4.824 5.177-8.795 5.177-6.791 0-10.187-4.045-10.187-12.135v-17.033h4.537v16.31c0 6.012 2.3 9.018 6.902 9.018 2.227 0 4.059-.821 5.496-2.463 1.438-1.643 2.157-3.79 2.157-6.443v-16.421h4.564l.001 28.499zM277.273 187.781h-4.564v-4.453h-.111c-1.986 3.414-4.908 5.121-8.768 5.121-2.839 0-5.062-.752-6.666-2.254-1.604-1.504-2.407-3.498-2.407-5.984 0-5.325 3.136-8.424 9.407-9.296l8.545-1.196c0-4.844-1.958-7.265-5.873-7.265-3.433 0-6.531 1.169-9.296 3.507v-4.676c2.802-1.781 6.03-2.672 9.686-2.672 6.698 0 10.048 3.544 10.048 10.632v18.536h-.001zm-4.564-14.417-6.875.946c-2.115.297-3.711.821-4.787 1.572-1.076.752-1.614 2.083-1.614 3.994 0 1.392.496 2.528 1.489 3.409.992.882 2.314 1.322 3.966 1.322 2.264 0 4.133-.793 5.608-2.38 1.475-1.586 2.213-3.595 2.213-6.025v-2.838zM288.856 187.781h-4.564v-42.193h4.564v42.193zM298.791 152.045c-.816 0-1.513-.278-2.087-.835-.576-.557-.863-1.262-.863-2.115s.287-1.562.863-2.129a2.865 2.865 0 0 1 2.087-.849c.835 0 1.545.282 2.129.849.585.566.877 1.275.877 2.129 0 .816-.292 1.513-.877 2.087-.584.576-1.294.863-2.129.863zm2.227 35.736h-4.564v-28.5h4.564v28.5zM328.643 160.621l-16.866 23.295h16.699v3.896h-23.407v-1.42l16.867-23.184h-15.28v-3.896h21.987v1.309zM353.426 187.781h-4.564v-4.453h-.111c-1.986 3.414-4.908 5.121-8.768 5.121-2.839 0-5.062-.752-6.666-2.254-1.604-1.504-2.407-3.498-2.407-5.984 0-5.325 3.136-8.424 9.407-9.296l8.545-1.196c0-4.844-1.958-7.265-5.873-7.265-3.433 0-6.531 1.169-9.296 3.507v-4.676c2.802-1.781 6.03-2.672 9.686-2.672 6.698 0 10.048 3.544 10.048 10.632v18.536h-.001zm-4.565-14.417-6.875.946c-2.115.297-3.711.821-4.787 1.572-1.076.752-1.614 2.083-1.614 3.994 0 1.392.496 2.528 1.489 3.409.992.882 2.314 1.322 3.966 1.322 2.264 0 4.133-.793 5.608-2.38 1.475-1.586 2.213-3.595 2.213-6.025v-2.838zM373.57 187.503c-1.076.594-2.495.891-4.258.891-4.991 0-7.486-2.783-7.486-8.35v-16.866h-4.898v-3.896h4.898v-6.958l4.564-1.476v8.434h7.18v3.896h-7.18v16.059c0 1.912.324 3.275.974 4.092s1.726 1.225 3.229 1.225c1.15 0 2.144-.315 2.978-.946v3.895h-.001zM380.578 152.045c-.816 0-1.513-.278-2.087-.835-.576-.557-.863-1.262-.863-2.115s.287-1.562.863-2.129a2.865 2.865 0 0 1 2.087-.849c.835 0 1.545.282 2.129.849.585.566.877 1.275.877 2.129 0 .816-.292 1.513-.877 2.087-.584.576-1.294.863-2.129.863zm2.227 35.736h-4.564v-28.5h4.564v28.5zM402.345 188.449c-4.212 0-7.575-1.331-10.089-3.994-2.515-2.662-3.771-6.192-3.771-10.59 0-4.787 1.309-8.525 3.924-11.217 2.617-2.689 6.151-4.035 10.604-4.035 4.249 0 7.565 1.309 9.95 3.924 2.384 2.617 3.576 6.244 3.576 10.883 0 4.546-1.285 8.188-3.854 10.924-2.571 2.737-6.017 4.105-10.34 4.105zm.334-25.995c-2.932 0-5.251.998-6.958 2.992s-2.561 4.745-2.561 8.252c0 3.377.863 6.04 2.588 7.987 1.727 1.949 4.036 2.923 6.931 2.923 2.95 0 5.219-.955 6.805-2.866 1.587-1.911 2.38-4.63 2.38-8.155 0-3.562-.793-6.309-2.38-8.238-1.587-1.93-3.855-2.895-6.805-2.895zM446.001 187.781h-4.564v-16.254c0-6.049-2.208-9.073-6.624-9.073-2.282 0-4.171.858-5.664 2.574-1.493 1.717-2.24 3.883-2.24 6.499v16.254h-4.564v-28.5h4.564v4.731h.111c2.152-3.6 5.27-5.399 9.352-5.399 3.117 0 5.501 1.007 7.153 3.02 1.65 2.014 2.477 4.922 2.477 8.726v17.422h-.001z"/></g><g class="st1"><path d="M158.085 85.5h-1.712v-9.864c0-.779.047-1.733.143-2.861h-.041c-.164.663-.311 1.138-.44 1.425l-5.024 11.3h-.841l-5.014-11.218c-.144-.328-.291-.831-.441-1.507h-.041c.055.588.082 1.548.082 2.881V85.5h-1.661V70.796h2.276l4.512 10.254c.349.786.574 1.374.677 1.764h.062c.294-.807.529-1.408.708-1.805l4.604-10.213h2.153V85.5h-.002zM162.587 72.334c-.301 0-.558-.103-.769-.308-.213-.205-.318-.465-.318-.779s.105-.576.318-.784c.211-.208.468-.313.769-.313.308 0 .569.104.784.313.216.208.323.47.323.784 0 .301-.107.557-.323.769a1.073 1.073 0 0 1-.784.318zm.821 13.166h-1.682V75h1.682v10.5zM173.969 85.018c-.807.485-1.764.729-2.871.729-1.497 0-2.705-.487-3.625-1.461-.919-.975-1.379-2.237-1.379-3.789 0-1.729.495-3.119 1.486-4.168s2.314-1.574 3.969-1.574c.923 0 1.736.171 2.44.513v1.723c-.779-.547-1.613-.82-2.502-.82-1.073 0-1.953.385-2.641 1.153-.687.77-1.03 1.779-1.03 3.03 0 1.23.323 2.201.969 2.912.646.711 1.513 1.066 2.6 1.066.916 0 1.777-.304 2.584-.913v1.599zM181.987 76.702c-.294-.226-.718-.338-1.271-.338-.718 0-1.317.338-1.8 1.015-.481.677-.723 1.6-.723 2.769V85.5h-1.682V75h1.682v2.164h.041c.239-.738.604-1.314 1.097-1.728.492-.413 1.043-.62 1.651-.62.438 0 .772.048 1.005.144v1.742zM187.924 85.746c-1.552 0-2.791-.49-3.717-1.472-.927-.98-1.39-2.281-1.39-3.901 0-1.764.482-3.141 1.445-4.132.965-.991 2.267-1.487 3.907-1.487 1.565 0 2.787.482 3.666 1.446.878.964 1.317 2.3 1.317 4.009 0 1.675-.474 3.017-1.42 4.024-.945 1.009-2.215 1.513-3.808 1.513zm.123-9.577c-1.08 0-1.935.368-2.563 1.103s-.943 1.748-.943 3.04c0 1.244.318 2.226.953 2.942.637.719 1.487 1.077 2.554 1.077 1.087 0 1.923-.352 2.507-1.056.585-.704.877-1.706.877-3.005 0-1.312-.292-2.324-.877-3.035-.585-.711-1.421-1.066-2.508-1.066zM195.205 85.121v-1.805c.916.676 1.924 1.015 3.025 1.015 1.477 0 2.215-.492 2.215-1.477 0-.28-.063-.518-.19-.713a1.896 1.896 0 0 0-.513-.518 3.967 3.967 0 0 0-.759-.405 55.86 55.86 0 0 0-.938-.374 12.145 12.145 0 0 1-1.225-.559 3.683 3.683 0 0 1-.882-.636 2.353 2.353 0 0 1-.533-.805 2.841 2.841 0 0 1-.18-1.056 2.5 2.5 0 0 1 .339-1.308 2.98 2.98 0 0 1 .902-.953 4.19 4.19 0 0 1 1.286-.58c.482-.13.979-.195 1.492-.195.909 0 1.723.157 2.44.472v1.702c-.772-.506-1.661-.759-2.666-.759-.314 0-.599.036-.852.107-.253.072-.47.173-.65.303-.182.13-.321.286-.421.467a1.23 1.23 0 0 0-.148.6c0 .273.05.502.148.687.1.185.244.349.437.492.19.144.423.273.697.39.272.116.584.243.933.379.465.178.882.361 1.251.549s.684.399.943.636c.26.235.46.507.6.815.141.307.211.673.211 1.097 0 .52-.115.971-.344 1.354-.229.383-.535.701-.918.954s-.824.44-1.322.563a6.54 6.54 0 0 1-1.569.185c-1.08.001-2.016-.208-2.809-.624zM209.14 85.746c-1.552 0-2.791-.49-3.717-1.472-.927-.98-1.39-2.281-1.39-3.901 0-1.764.482-3.141 1.445-4.132.965-.991 2.267-1.487 3.907-1.487 1.565 0 2.787.482 3.666 1.446.878.964 1.317 2.3 1.317 4.009 0 1.675-.474 3.017-1.42 4.024-.946 1.009-2.215 1.513-3.808 1.513zm.123-9.577c-1.08 0-1.935.368-2.563 1.103s-.943 1.748-.943 3.04c0 1.244.318 2.226.953 2.942.637.719 1.487 1.077 2.554 1.077 1.087 0 1.923-.352 2.507-1.056.585-.704.877-1.706.877-3.005 0-1.312-.292-2.324-.877-3.035-.585-.711-1.421-1.066-2.508-1.066zM221.865 71.432a2.235 2.235 0 0 0-1.117-.277c-1.177 0-1.764.742-1.764 2.225V75h2.461v1.436h-2.461V85.5h-1.672v-9.064h-1.795V75h1.795v-1.702c0-1.101.318-1.97.953-2.609.637-.639 1.429-.959 2.379-.959.514 0 .92.062 1.221.185v1.517zM228.499 85.397c-.396.219-.919.328-1.568.328-1.839 0-2.758-1.025-2.758-3.076v-6.214h-1.805V75h1.805v-2.563l1.682-.543V75h2.645v1.436h-2.645v5.916c0 .705.119 1.207.358 1.508s.636.451 1.189.451c.424 0 .79-.116 1.097-.349v1.435z"/></g><text transform="translate(226.295 79.839)" style="font-size:9.911px;font-family:'SegoeUI'">®</text></g></svg>