<?xml version="1.0" encoding="UTF-8" standalone="no"?>
<svg
   xmlns:dc="http://purl.org/dc/elements/1.1/"
   xmlns:cc="http://creativecommons.org/ns#"
   xmlns:rdf="http://www.w3.org/1999/02/22-rdf-syntax-ns#"
   xmlns:svg="http://www.w3.org/2000/svg"
   xmlns="http://www.w3.org/2000/svg"
   xmlns:sodipodi="http://sodipodi.sourceforge.net/DTD/sodipodi-0.dtd"
   xmlns:inkscape="http://www.inkscape.org/namespaces/inkscape"
   width="936"
   height="224"
   id="svg2"
   version="1.1"
   inkscape:version="1.0.1 (3bc2e813f5, 2020-09-07)"
   sodipodi:docname="SteamOS_logo.svg">
  <defs
     id="defs4" />
  <sodipodi:namedview
     id="base"
     pagecolor="#000000"
     bordercolor="#666666"
     borderopacity="1.0"
     inkscape:pageopacity="1"
     inkscape:pageshadow="2"
     inkscape:zoom="2.8284271"
     inkscape:cx="443.34118"
     inkscape:cy="67.78611"
     inkscape:document-units="px"
     inkscape:current-layer="flowRoot2993"
     showgrid="false"
     inkscape:window-width="3840"
     inkscape:window-height="2066"
     inkscape:window-x="-11"
     inkscape:window-y="-11"
     inkscape:window-maximized="1"
     inkscape:document-rotation="0">
    <inkscape:grid
       type="xygrid"
       id="grid3784"
       empspacing="5"
       visible="true"
       enabled="true"
       snapvisiblegridlinesonly="true" />
  </sodipodi:namedview>
  <metadata
     id="metadata7">
    <rdf:RDF>
      <cc:Work
         rdf:about="">
        <dc:format>image/svg+xml</dc:format>
        <dc:type
           rdf:resource="http://purl.org/dc/dcmitype/StillImage" />
        <dc:title />
      </cc:Work>
    </rdf:RDF>
  </metadata>
  <g
     inkscape:label="Capa 1"
     inkscape:groupmode="layer"
     id="capa1"
     transform="translate(0,-828.36218)">
    <flowRoot
       xml:space="preserve"
       id="flowRoot2985"
       style="line-height:0.01%"><flowRegion
         id="flowRegion2987"><rect
           id="rect2989"
           width="927.14288"
           height="210"
           x="7.1428571"
           y="8.2857141"
           style="font-size:64px" /></flowRegion><flowPara
         id="flowPara2991"
         style="font-size:12px;line-height:1.25"> </flowPara></flowRoot>
    <g
       transform="translate(0,828.36218)"
       id="flowRoot2993">
      <rect
         style="fill:#000000;fill-opacity:1;stroke:none"
         id="rect2995"
         width="936"
         height="224"
         x="0"
         y="1.2406742e-014" />
      <g
         id="g851"
         transform="translate(-0.1891705,-2.7611955)">
        <path
           d="m 166.27611,144.87151 c -1.1e-4,12.38718 -4.84381,21.97928 -14.53108,28.77631 -9.68749,6.79706 -23.32923,10.19558 -40.92525,10.19558 -32.714829,0 -51.676685,-11.37076 -56.885629,-34.11231 l 17.627874,-3.52558 c 2.032736,8.06756 6.352355,13.99116 12.958869,17.7708 6.606437,3.77969 15.595056,5.66953 26.965886,5.66951 11.75183,2e-5 20.81985,-2.01687 27.2041,-6.05065 6.38404,-4.03374 9.57612,-9.95734 9.57621,-17.7708 -9e-5,-4.3831 -1.00059,-7.94044 -3.0015,-10.67201 -2.0011,-2.73148 -4.81202,-4.98658 -8.43279,-6.76529 -3.62095,-1.77861 -7.94056,-3.27142 -12.95887,-4.47843 -5.01846,-1.20689 -10.57679,-2.50914 -16.67501,-3.90672 -10.608542,-2.35032 -18.660184,-4.7007 -24.154956,-7.05115 -5.494846,-2.35032 -9.830347,-4.97067 -13.006511,-7.86108 C 66.861237,102.19943 64.431452,98.816789 62.748089,94.94175 61.06469,91.066885 60.222999,86.620218 60.223014,81.601738 60.222999,70.10403 64.622024,61.24246 73.420099,55.017 c 8.798018,-6.225206 21.391612,-9.337873 37.780821,-9.338009 15.24565,1.36e-4 26.90226,2.334636 34.96989,7.003506 8.06742,4.669129 13.72103,12.625486 16.96087,23.869094 l -17.91373,3.144431 c -1.96933,-7.114563 -5.71725,-12.275873 -11.24372,-15.483942 -5.52667,-3.207835 -13.18128,-4.811811 -22.96388,-4.811933 -10.73559,1.22e-4 -18.930163,1.778789 -24.58374,5.336005 -5.653659,3.55745 -8.480469,8.861687 -8.480437,15.912728 -3.2e-5,4.129149 1.095754,7.543554 3.287362,10.243224 2.191534,2.699853 5.351844,4.98671 9.480936,6.860578 4.129002,1.874036 12.355339,4.176778 24.679019,6.908218 4.12898,0.95294 8.24215,1.92167 12.33952,2.90622 4.09719,0.98469 8.01979,2.15988 11.76779,3.52557 3.74782,1.36584 7.25751,2.96981 10.52908,4.81194 3.27138,1.84225 6.11406,4.09735 8.52808,6.7653 2.4138,2.66805 4.30363,5.81248 5.66951,9.43328 1.36564,3.62091 2.04853,7.877 2.04864,12.7683 z"
           id="path3002"
           inkscape:connector-curvature="0"
           style="fill:#ffffff" />
        <path
           d="m 228.21188,181.1754 c -5.65367,1.52457 -11.43433,2.28686 -17.34202,2.28686 -13.72117,0 -20.58175,-7.78166 -20.58173,-23.34502 V 91.32089 H 178.37741 V 78.83845 h 12.57772 l 5.05015,-23.059164 h 11.43429 V 78.83845 h 19.05716 v 12.48244 h -19.05716 v 65.0802 c -3e-5,4.95489 0.80991,8.43281 2.42979,10.4338 1.61983,2.00101 4.43076,3.00151 8.4328,3.0015 2.28682,1e-5 5.59004,-0.44465 9.90972,-1.334 z"
           id="path3004"
           inkscape:connector-curvature="0"
           style="fill:#ffffff" />
        <path
           d="m 255.84476,134.00893 c -2e-5,11.81548 2.44564,20.93115 7.33701,27.34702 4.89129,6.41594 12.03773,9.62388 21.43931,9.62387 7.43223,1e-5 13.38759,-1.4928 17.86608,-4.47843 4.47835,-2.98561 7.51162,-6.76528 9.0998,-11.33901 l 15.05515,4.28786 c -6.1619,16.26212 -20.16891,24.39316 -42.02103,24.39316 -15.24577,0 -26.85475,-4.54195 -34.82697,-13.62587 -7.97225,-9.08389 -11.95837,-22.58269 -11.95837,-40.49646 0,-17.02433 3.98612,-30.078471 11.95837,-39.162467 7.97222,-9.083812 19.35887,-13.625764 34.15996,-13.625869 30.3008,1.05e-4 45.45123,18.263198 45.45133,54.789336 v 2.28686 z m 55.83748,-13.14944 c -0.95293,-10.86251 -3.71623,-18.78711 -8.28987,-23.77381 -4.57378,-4.986533 -11.1485,-7.479843 -19.72416,-7.479935 -8.32166,9.2e-5 -14.91226,2.779259 -19.7718,8.337508 -4.8596,5.558417 -7.47996,13.197157 -7.86108,22.916237 z"
           id="path3006"
           inkscape:connector-curvature="0"
           style="fill:#ffffff" />
        <path
           d="m 377.62002,183.8434 c -10.35443,0 -18.13609,-2.73152 -23.34502,-8.19457 -5.20897,-5.46305 -7.81344,-12.95885 -7.81344,-22.48745 0,-10.67198 3.50969,-18.86654 10.52908,-24.58374 7.01936,-5.7171 18.34248,-8.76623 33.96939,-9.14744 l 23.15445,-0.38114 v -5.62186 c -8e-5,-8.38508 -1.77875,-14.388077 -5.336,-18.00902 -3.55741,-3.620771 -9.14751,-5.431199 -16.7703,-5.431291 -7.68644,9.2e-5 -13.27654,1.30233 -16.7703,3.906718 -3.49385,2.604564 -5.59015,6.765373 -6.28887,12.482443 l -17.91373,-1.61986 c 2.92208,-18.548876 16.70675,-27.823351 41.35404,-27.823456 12.9588,1.05e-4 22.7097,2.969842 29.25273,8.909222 6.54287,5.939572 9.81435,14.531164 9.81444,25.774814 v 44.40318 c -9e-5,5.08194 0.66691,8.90924 2.001,11.48194 1.33391,2.57272 3.87487,3.85908 7.62286,3.85907 1.65153,1e-5 3.52548,-0.22232 5.62187,-0.66699 v 10.67201 c -4.31972,1.01638 -8.73462,1.52456 -13.24473,1.52457 -6.35247,-1e-5 -10.97382,-1.6675 -13.86407,-5.00251 -2.89042,-3.33499 -4.52615,-8.55983 -4.90723,-15.67452 h -0.57171 c -4.38322,7.87698 -9.48101,13.45119 -15.29337,16.72267 -5.81249,3.27148 -12.87951,4.90721 -21.20109,4.90721 z m 3.90671,-12.86358 c 6.28882,1e-5 11.87892,-1.42928 16.7703,-4.28786 4.89128,-2.85855 8.75035,-6.78115 11.57723,-11.76779 2.82673,-4.9866 4.24014,-10.11615 4.24022,-15.38866 v -8.48043 l -18.77131,0.38114 c -8.06758,0.12711 -14.18174,0.9529 -18.34251,2.47742 -4.16085,1.52462 -7.35293,3.87501 -9.57623,7.05116 -2.22335,3.17622 -3.33502,7.33703 -3.335,12.48243 -2e-5,5.59013 1.50867,9.90975 4.52608,12.95887 3.01735,3.04916 7.32108,4.57373 12.91122,4.57372 z"
           id="path3008"
           inkscape:connector-curvature="0"
           style="fill:#ffffff" />
        <path
           d="m 519.977,181.93769 v -65.36606 c -7e-5,-9.97318 -1.36583,-16.865507 -4.09728,-20.677022 -2.7316,-3.811342 -7.6547,-5.717056 -14.7693,-5.717148 -7.3053,9.2e-5 -13.08596,2.79514 -17.34203,8.385151 -4.25612,5.590179 -6.38418,13.467129 -6.38413,23.630879 v 59.7442 h -17.05617 v -81.08822 c -10e-6,-12.005918 -0.19057,-19.342917 -0.57172,-22.01102 h 16.1986 c 0.0636,0.317721 0.12698,1.175293 0.19056,2.572716 0.0636,1.397624 0.1429,3.001601 0.23823,4.811933 0.0953,1.810524 0.20642,5.224929 0.33349,10.243224 h 0.28586 c 3.68435,-7.305151 7.90869,-12.387057 12.67301,-15.245728 4.76424,-2.85847 10.57667,-4.287756 17.43731,-4.287861 7.81336,1.05e-4 13.99105,1.556437 18.53308,4.669004 4.54187,3.112767 7.70218,8.067623 9.48093,14.864585 h 0.28587 c 3.55724,-6.924009 7.86098,-11.910627 12.91122,-14.95987 5.05005,-3.049043 11.16421,-4.573614 18.34252,-4.573719 10.41778,1.05e-4 17.99299,2.826915 22.72566,8.480436 4.73238,5.653715 7.09864,14.92819 7.09879,27.82345 v 68.70107 h -16.96087 v -65.36606 c -1.3e-4,-9.97318 -1.36589,-16.865507 -4.09729,-20.677022 -2.73165,-3.811342 -7.65475,-5.717056 -14.7693,-5.717148 -7.49593,9.2e-5 -13.32422,2.779258 -17.48494,8.337508 -4.1609,5.558412 -6.24132,13.451252 -6.24122,23.678522 v 59.7442 z"
           id="path3010"
           inkscape:connector-curvature="0"
           style="fill:#ffffff" />
        <path
           d="m 751.99793,114.18948 c -1.4e-4,14.03883 -2.68402,26.33069 -8.05164,36.87561 -5.36791,10.54499 -13.07016,18.64426 -23.10682,24.29788 -10.03687,5.65362 -21.88406,8.48043 -35.5416,8.48043 -13.78474,0 -25.67957,-2.79505 -35.68453,-8.38515 -10.00504,-5.59008 -17.64378,-13.67349 -22.91624,-24.25023 -5.27249,-10.57669 -7.90873,-22.91619 -7.90871,-37.01854 -2e-5,-21.470976 5.87593,-38.25714 17.62787,-50.358544 11.75188,-12.101167 28.10926,-18.151809 49.07219,-18.151945 13.65754,1.36e-4 25.50473,2.715778 35.5416,8.146935 10.03665,5.431414 17.70714,13.324247 23.01152,23.678523 5.3041,10.354484 7.95622,22.582821 7.95636,36.685031 z m -18.58074,0 c -1.2e-4,-16.706691 -4.1768,-29.824356 -12.53007,-39.353033 -8.3535,-9.528464 -20.15304,-14.29275 -35.39867,-14.292871 -15.37285,1.21e-4 -27.25179,4.700883 -35.6369,14.102299 -8.38518,9.40163 -12.57775,22.58282 -12.57773,39.543605 -2e-5,16.83389 4.2402,30.18975 12.72066,40.06768 8.48039,9.87799 20.24817,14.81695 35.30339,14.81694 15.49974,1e-5 27.39457,-4.78015 35.68453,-14.34051 8.28975,-9.56031 12.43467,-23.07499 12.43479,-40.54411 z"
           id="path3012"
           inkscape:connector-curvature="0"
           style="fill:#c3acda;fill-opacity:1" />
        <path
           d="m 882.44419,144.87151 c -1.1e-4,12.38718 -4.84381,21.97928 -14.53108,28.77631 -9.68749,6.79706 -23.32923,10.19558 -40.92525,10.19558 -32.71483,0 -51.67668,-11.37076 -56.88562,-34.11231 l 17.62787,-3.52558 c 2.03274,8.06756 6.35236,13.99116 12.95887,17.7708 6.60644,3.77969 15.59505,5.66953 26.96588,5.66951 11.75183,2e-5 20.81985,-2.01687 27.2041,-6.05065 6.38404,-4.03374 9.57612,-9.95734 9.57622,-17.7708 -10e-5,-4.3831 -1.0006,-7.94044 -3.0015,-10.67201 -2.00111,-2.73148 -4.81203,-4.98658 -8.4328,-6.76529 -3.62095,-1.77861 -7.94056,-3.27142 -12.95887,-4.47843 -5.01846,-1.20689 -10.57679,-2.50914 -16.67502,-3.90672 -10.60853,-2.35032 -18.66017,-4.7007 -24.15494,-7.05115 -5.49486,-2.35032 -9.83035,-4.97067 -13.00651,-7.86108 -3.17622,-2.89026 -5.606,-6.272901 -7.28937,-10.14794 -1.6834,-3.874865 -2.52509,-8.321532 -2.52508,-13.340012 -10e-6,-11.497708 4.39901,-20.359278 13.19709,-26.584738 8.79801,-6.225206 21.39161,-9.337873 37.78082,-9.338009 15.24565,1.36e-4 26.90226,2.334636 34.96989,7.003506 8.06742,4.669129 13.72104,12.625486 16.96087,23.869094 l -17.91373,3.144431 c -1.96933,-7.114563 -5.71724,-12.275873 -11.24372,-15.483942 -5.52666,-3.207835 -13.18128,-4.811811 -22.96389,-4.811933 -10.73558,1.22e-4 -18.93015,1.778789 -24.58373,5.336005 -5.65365,3.55745 -8.48047,8.861687 -8.48043,15.912728 -4e-5,4.129149 1.09576,7.543554 3.28736,10.243224 2.19154,2.699853 5.35185,4.98671 9.48093,6.860578 4.12901,1.874036 12.35534,4.176778 24.67903,6.908218 4.12897,0.95294 8.24214,1.92167 12.33951,2.90622 4.0972,0.98469 8.0198,2.15988 11.76779,3.52557 3.74782,1.36584 7.25751,2.96981 10.52908,4.81194 3.27138,1.84225 6.11407,4.09735 8.52808,6.7653 2.4138,2.66805 4.30363,5.81248 5.66952,9.43328 1.36563,3.62091 2.04852,7.877 2.04863,12.7683 z"
           id="path3014"
           inkscape:connector-curvature="0"
           style="fill:#c3acda;fill-opacity:1" />
      </g>
    </g>
  </g>
</svg>
