<?xml version="1.0" encoding="UTF-8"?>
<svg version="1.1" xmlns="http://www.w3.org/2000/svg" width="1272" height="640">
<path d="M0 0 C1.22638184 -0.00637985 2.45276367 -0.0127597 3.71630859 -0.01933289 C5.07128866 -0.02086398 6.42626926 -0.02197665 7.78125 -0.02270508 C9.17399123 -0.0259209 10.56673213 -0.02928522 11.95947266 -0.03279114 C14.89519021 -0.03879868 17.8308783 -0.04063003 20.76660156 -0.04003906 C23.74778411 -0.03995856 26.72881053 -0.04677046 29.70996094 -0.06054688 C59.65396535 -0.19750147 59.65396535 -0.19750147 72.33203125 1.81201172 C75.08880522 2.12351805 76.68311383 1.95643463 79.28125 1.14526367 C80.61966672 1.45756091 81.95264075 1.79357299 83.28125 2.14526367 C84.291875 2.14526367 85.3025 2.14526367 86.34375 2.14526367 C89.28125 2.14526367 89.28125 2.14526367 92.28125 3.14526367 C94.36215369 3.32242169 96.44620039 3.46396433 98.53125 3.58276367 C102.27157287 3.83627444 105.71488986 4.09462725 109.28125 5.27026367 C112.17845246 6.36638461 112.17845246 6.36638461 114.78125 5.64526367 C118.32282093 4.93694949 120.85096004 6.09873453 124.28125 7.14526367 C125.73575468 7.36045777 127.19458942 7.54826225 128.65625 7.70776367 C132.28125 8.14526367 132.28125 8.14526367 133.28125 9.14526367 C134.951875 9.11432617 134.951875 9.11432617 136.65625 9.08276367 C142.4074544 8.99941288 149.08548153 9.54737944 154.28125 12.14526367 C156.27885305 12.4926729 158.27912771 12.82492411 160.28125 13.14526367 C161.61693021 13.46906494 162.95048011 13.80183918 164.28125 14.14526367 C165.51875 14.39276367 165.51875 14.39276367 166.78125 14.64526367 C173.54726421 15.99846651 180.30314167 17.79668632 186.59375 20.64526367 C189.91958754 21.99814674 192.77377323 22.56068421 196.28125 23.14526367 C196.61125 23.80526367 196.94125 24.46526367 197.28125 25.14526367 C198.9375926 25.5266009 200.60725053 25.85095997 202.28125 26.14526367 C208.54869004 28.08844377 213.91106517 30.32646557 219.28125 34.14526367 C220.58418155 34.81018948 221.8975417 35.45493759 223.21875 36.08276367 C228.81132683 38.81476959 233.81623883 41.85656241 237.28125 47.14526367 C239.12313612 49.1979683 239.12313612 49.1979683 241.28125 50.14526367 C241.28125 50.80526367 241.28125 51.46526367 241.28125 52.14526367 C241.94125 52.14526367 242.60125 52.14526367 243.28125 52.14526367 C243.28125 53.13526367 243.28125 54.12526367 243.28125 55.14526367 C243.94125 55.14526367 244.60125 55.14526367 245.28125 55.14526367 C248.64130524 60.52487967 248.6485147 64.89904516 248.46875 71.02026367 C248.45521484 71.8994043 248.44167969 72.77854492 248.42773438 73.68432617 C248.39261623 75.83823919 248.33881694 77.99183371 248.28125 80.14526367 C248.94125 80.14526367 249.60125 80.14526367 250.28125 80.14526367 C250.28125 116.77526367 250.28125 153.40526367 250.28125 191.14526367 C249.62125 191.14526367 248.96125 191.14526367 248.28125 191.14526367 C248.6062895 191.69355206 248.931329 192.24184044 249.26621819 192.80674362 C250.46736547 195.57405295 250.52757479 197.54902358 250.52175903 200.56158447 C250.52588303 202.2105925 250.52588303 202.2105925 250.53009033 203.89291382 C250.52289978 205.09412872 250.51570923 206.29534363 250.50830078 207.53295898 C250.50859283 208.80150726 250.50888489 210.07005554 250.50918579 211.37704468 C250.50975949 214.85196034 250.49800241 218.32673787 250.48403788 221.80162144 C250.47153342 225.43445192 250.47036024 229.06728559 250.46798706 232.70013428 C250.46177145 239.57781245 250.44535955 246.45542702 250.42528808 253.33307719 C250.40293159 261.16372543 250.39193628 268.99437671 250.38189721 276.82504892 C250.36099339 292.9318244 250.32581585 309.03853592 250.28125 325.14526367 C251.24780014 325.14304306 252.21435028 325.14082245 253.21018982 325.13853455 C262.48579446 325.11793358 271.76139424 325.10311866 281.03701687 325.0934515 C285.80146197 325.08831394 290.56588809 325.08139091 295.33032227 325.06982422 C314.18519666 325.0253389 333.03094528 325.01908545 351.87890625 325.58666992 C352.55186674 325.60620161 353.22482723 325.6257333 353.91818047 325.64585686 C361.41023804 325.87038681 368.83604328 326.26347798 376.28125 327.14526367 C376.28125 326.48526367 376.28125 325.82526367 376.28125 325.14526367 C379.58125 325.14526367 382.88125 325.14526367 386.28125 325.14526367 C386.61125 325.80526367 386.94125 326.46526367 387.28125 327.14526367 C388.1475 327.06276367 389.01375 326.98026367 389.90625 326.89526367 C396.95941477 327.41772032 401.76605381 333.12594363 406.28125 338.14526367 C409.73030922 342.50197006 410.741449 345.6392935 411.28125 351.14526367 C411.61125 351.47526367 411.94125 351.80526367 412.28125 352.14526367 C412.38147347 355.13689484 412.41563084 358.10551804 412.40823364 361.09764099 C412.40979363 362.04855198 412.41135362 362.99946298 412.41296089 363.97918946 C412.41697531 367.19138258 412.41377953 370.40352911 412.41064453 373.61572266 C412.41199839 375.90816272 412.41377823 378.20060256 412.41595459 380.49304199 C412.42053107 386.73879104 412.41873842 392.98452366 412.4155755 399.23027301 C412.4130527 405.75166542 412.41538925 412.27305638 412.41696167 418.79444885 C412.41890061 430.45211266 412.41578266 442.10976894 412.41070233 453.76743156 C412.40623534 464.34528362 412.40700933 474.9231247 412.41162109 485.50097656 C412.41696837 497.77167942 412.4189668 510.04237446 412.41600883 522.31307846 C412.4144462 528.81329459 412.41425187 535.31350315 412.41754532 541.8137188 C412.42042482 547.92442201 412.41844685 554.03510441 412.41265106 560.14580536 C412.41132384 562.39448321 412.41171695 564.64316281 412.41391373 566.89183998 C412.41662671 569.94988489 412.41324221 573.00786217 412.40823364 576.06590271 C412.41046436 576.96598586 412.41269509 577.86606901 412.41499341 578.79342741 C412.3953999 584.91696386 412.3953999 584.91696386 411.28125 587.14526367 C411.178125 588.01151367 411.075 588.87776367 410.96875 589.77026367 C410.10757196 593.99786497 408.3349109 597.38181066 406.28125 601.14526367 C405.62125 601.14526367 404.96125 601.14526367 404.28125 601.14526367 C403.95125 602.13526367 403.62125 603.12526367 403.28125 604.14526367 C402.62125 604.14526367 401.96125 604.14526367 401.28125 604.14526367 C400.95125 605.13526367 400.62125 606.12526367 400.28125 607.14526367 C392.63711441 613.19138592 383.79859797 612.78500151 374.578125 612.59838867 C373.01785917 612.58644251 371.45757278 612.57696472 369.89727783 612.56976318 C365.76824129 612.54507026 361.64011224 612.49151489 357.51147461 612.43029785 C351.11034777 612.33987934 344.70867437 612.29205179 338.30711937 612.24279594 C336.63731314 612.22972355 334.96751424 612.2156827 333.29772377 612.20073128 C318.51217273 612.0730251 303.74676538 612.30535381 288.96484375 612.62573242 C268.27291382 613.0694598 247.59029298 613.24588207 226.89453125 613.24291992 C226.19065482 613.24283888 225.48677838 613.24275784 224.76157236 613.24267435 C216.21007318 613.2409798 207.65859401 613.23086244 199.10710633 613.21729004 C191.72731382 613.2057955 184.34751997 613.20053428 176.96772063 613.19558728 C162.48320278 613.18575931 147.99870126 613.16947432 133.51419544 613.14805698 C131.76988141 613.14587493 130.0255654 613.14526367 128.28125 613.14526367 C121.61458333 613.14526367 114.94791667 613.14526367 108.28125 613.14526367 C107.064375 613.15686523 105.8475 613.1684668 104.59375 613.18041992 C103.15625108 613.18970266 101.71875102 613.19881126 100.28125 613.20776367 C99.55679687 613.21614258 98.83234375 613.22452148 98.0859375 613.2331543 C94.87881999 613.24794727 92.34661767 613.1670529 89.28125 612.14526367 C87.2528199 612.07607987 85.2220673 612.06900581 83.19262695 612.09521484 C81.93734695 612.10820114 80.68206696 612.12118744 79.38874817 612.13456726 C78.71795542 612.1435523 78.04716267 612.15253735 77.35604286 612.16179466 C75.24909871 612.18849132 73.14226058 612.20632643 71.03520203 612.2212677 C65.04451374 612.2639463 59.05403277 612.31136049 53.0637207 612.39208984 C49.39684378 612.44085916 45.7302603 612.46967921 42.06310081 612.48583412 C40.67130623 612.49567965 39.27954202 612.51281016 37.88793373 612.53761864 C22.12675659 612.81219582 22.12675659 612.81219582 15.72529602 606.64665222 C15.01049324 605.90346489 15.01049324 605.90346489 14.28125 605.14526367 C13.4975 604.42338867 12.71375 603.70151367 11.90625 602.95776367 C8.14050608 598.92303805 4.55427939 594.76634578 3.96875 589.14526367 C4.071875 588.48526367 4.175 587.82526367 4.28125 587.14526367 C3.95125 587.14526367 3.62125 587.14526367 3.28125 587.14526367 C3.28125 568.81193034 3.28125 550.47859701 3.28125 532.14526367 C2.66020386 532.15033936 2.03915771 532.15541504 1.39929199 532.16064453 C0.17973816 532.16656616 0.17973816 532.16656616 -1.06445312 532.17260742 C-1.87112427 532.17768311 -2.67779541 532.18275879 -3.50891113 532.18798828 C-5.88054846 532.14213549 -7.93537774 531.77758214 -10.21875 531.14526367 C-15.81466518 529.87909932 -21.30272097 530.00983393 -27.00585938 530.1315918 C-32.5351665 530.23705542 -32.5351665 530.23705542 -34.71875 529.14526367 C-37.77435614 529.11448778 -40.81690617 529.21264387 -43.87109375 529.30541992 C-46.71875 529.14526367 -46.71875 529.14526367 -49.71875 527.14526367 C-52.42421017 526.9781547 -52.42421017 526.9781547 -55.40625 527.14526367 C-59.13553648 527.21706702 -62.37819817 527.17317513 -65.96875 526.14526367 C-70.13744945 525.03361048 -73.43325647 525.07007957 -77.71875 525.14526367 C-78.04875 524.81526367 -78.37875 524.48526367 -78.71875 524.14526367 C-80.69742173 523.91441864 -82.6762559 523.6847898 -84.65625 523.46557617 C-87.19463308 523.07135759 -89.35558416 522.1299161 -91.71875 521.14526367 C-93.03875 521.14526367 -94.35875 521.14526367 -95.71875 521.14526367 C-96.70875 521.14526367 -97.69875 521.14526367 -98.71875 521.14526367 C-98.71875 520.48526367 -98.71875 519.82526367 -98.71875 519.14526367 C-99.46125 519.35151367 -100.20375 519.55776367 -100.96875 519.77026367 C-104.09411757 520.19645016 -105.04104676 519.62261718 -107.71875 518.14526367 C-108.37875 518.47526367 -109.03875 518.80526367 -109.71875 519.14526367 C-110.04875 518.48526367 -110.37875 517.82526367 -110.71875 517.14526367 C-112.0490625 517.17620117 -112.0490625 517.17620117 -113.40625 517.20776367 C-116.36476466 517.15194264 -118.8793077 516.9565329 -121.71875 516.14526367 C-122.04875 515.48526367 -122.37875 514.82526367 -122.71875 514.14526367 C-125.04381659 513.75370139 -125.04381659 513.75370139 -127.71875 513.64526367 C-130.46875 513.48901367 -130.46875 513.48901367 -132.71875 513.14526367 C-133.04875 512.48526367 -133.37875 511.82526367 -133.71875 511.14526367 C-135.71598547 510.79574746 -137.71685127 510.4669974 -139.71875 510.14526367 C-142.75785572 509.2537179 -145.73330138 508.2007253 -148.71875 507.14526367 C-149.48445313 506.89518555 -150.25015625 506.64510742 -151.0390625 506.38745117 C-152.96584378 505.73137869 -154.84790774 504.94705321 -156.71875 504.14526367 C-157.21375 502.66026367 -157.21375 502.66026367 -157.71875 501.14526367 C-158.24339844 501.37729492 -158.76804687 501.60932617 -159.30859375 501.84838867 C-162.98229909 502.30090343 -165.09835426 500.67681624 -168.28125 498.89526367 C-169.41691406 498.27135742 -170.55257813 497.64745117 -171.72265625 497.00463867 C-174.15741448 495.49362835 -175.80985468 494.21472028 -177.71875 492.14526367 C-178.95625 491.40276367 -178.95625 491.40276367 -180.21875 490.64526367 C-182.47696039 489.29033744 -183.95813279 488.06593699 -185.71875 486.14526367 C-186.4303125 485.43370117 -186.4303125 485.43370117 -187.15625 484.70776367 C-187.671875 484.19213867 -188.1875 483.67651367 -188.71875 483.14526367 C-189.440625 482.46463867 -190.1625 481.78401367 -190.90625 481.08276367 C-192.71875 479.14526367 -192.71875 479.14526367 -192.71875 477.14526367 C-193.37875 477.14526367 -194.03875 477.14526367 -194.71875 477.14526367 C-196.21875 474.89526367 -196.21875 474.89526367 -197.71875 472.14526367 C-198.07500458 471.55340271 -198.43125916 470.96154175 -198.79830933 470.35174561 C-199.99302169 467.48777911 -199.95861707 465.19309419 -199.94580078 462.09155273 C-199.94564972 460.87058899 -199.94549866 459.64962524 -199.94534302 458.3916626 C-199.93502045 457.0780072 -199.92469788 455.76435181 -199.9140625 454.41088867 C-199.91033042 453.04897265 -199.90748437 451.68705394 -199.90548706 450.32513428 C-199.89786594 446.74778782 -199.87823069 443.17060482 -199.8560791 439.59332275 C-199.83558778 435.94008597 -199.82647833 432.28682266 -199.81640625 428.63354492 C-199.79498322 421.47071014 -199.76086582 414.30800985 -199.71875 407.14526367 C-200.04875 407.14526367 -200.37875 407.14526367 -200.71875 407.14526367 C-200.74161788 365.64883529 -200.759249 324.15240764 -200.76981533 282.65597422 C-200.7710661 277.76161626 -200.77236042 272.86725832 -200.77368164 267.97290039 C-200.77394395 266.9984846 -200.77420626 266.0240688 -200.77447652 265.02012525 C-200.77883282 249.22375033 -200.78672015 233.42737903 -200.7959028 217.63100626 C-200.80524045 201.43339908 -200.81080585 185.23579381 -200.81283849 169.03818405 C-200.81421349 159.03611253 -200.81856281 149.03405125 -200.82666647 139.03198288 C-200.8319353 132.1816256 -200.83355398 125.33127365 -200.83225138 118.48091449 C-200.83160822 114.52328893 -200.83262308 110.56568133 -200.83795547 106.60805893 C-200.84279533 102.98975111 -200.84308475 99.37147344 -200.83964889 95.75316428 C-200.83902137 93.8140616 -200.84335786 91.87495932 -200.84783131 89.93586171 C-200.84584026 88.79629265 -200.84384921 87.6567236 -200.84179783 86.48262215 C-200.84217755 85.49307097 -200.84255727 84.50351979 -200.8429485 83.48398221 C-200.71875 81.14526367 -200.71875 81.14526367 -199.71875 79.14526367 C-199.69869101 77.60358674 -199.72639069 76.06109481 -199.78125 74.52026367 C-199.86688918 62.61641745 -194.96127266 55.03362154 -187.0390625 46.45776367 C-179.70185811 39.14526367 -179.70185811 39.14526367 -175.71875 39.14526367 C-175.38875 38.48526367 -175.05875 37.82526367 -174.71875 37.14526367 C-167.19407025 32.07345067 -159.14097616 28.43004554 -150.71875 25.14526367 C-149.79449219 24.76241211 -148.87023437 24.37956055 -147.91796875 23.98510742 C-142.98059037 21.94432436 -138.42486583 20.60728345 -133.15625 19.70776367 C-130.74152988 19.26182687 -130.74152988 19.26182687 -128.84375 18.14526367 C-126.71875 17.14526367 -126.71875 17.14526367 -123.15625 16.64526367 C-119.60579437 16.3799078 -119.60579437 16.3799078 -116.71875 14.14526367 C-114.71393056 13.67499738 -112.68911179 13.28628204 -110.65625 12.95776367 C-109.06103516 12.68899414 -109.06103516 12.68899414 -107.43359375 12.41479492 C-104.71875 12.14526367 -104.71875 12.14526367 -102.71875 13.14526367 C-102.71875 12.48526367 -102.71875 11.82526367 -102.71875 11.14526367 C-102.05488281 11.08467773 -101.39101563 11.0240918 -100.70703125 10.96166992 C-92.98899416 10.46429179 -92.98899416 10.46429179 -85.71875 8.14526367 C-85.71875 8.80526367 -85.71875 9.46526367 -85.71875 10.14526367 C-84.873125 9.65026367 -84.0275 9.15526367 -83.15625 8.64526367 C-79.32976698 6.97552563 -76.84769768 6.99512012 -72.71875 7.14526367 C-70.28817393 6.7495885 -67.97207191 6.21231947 -65.59375 5.58276367 C-63.71875 5.14526367 -63.71875 5.14526367 -60.71875 5.14526367 C-58.86165006 4.82868042 -57.00779199 4.49288042 -55.15625 4.14526367 C-49.61342857 3.18657836 -44.3307609 2.92177651 -38.71875 3.14526367 C-38.71875 2.81526367 -38.71875 2.48526367 -38.71875 2.14526367 C-37.501875 2.16588867 -36.285 2.18651367 -35.03125 2.20776367 C-32.53675062 2.21654712 -30.48720475 2.09680071 -28.03125 1.58276367 C-25.31554918 1.06898243 -23.4047981 1.59427945 -20.71875 2.14526367 C-20.11546875 1.99057617 -19.5121875 1.83588867 -18.890625 1.67651367 C-16.35991706 1.05749158 -14.13223921 1.08379273 -11.53125 1.14526367 C-9.92752332 1.18283267 -8.32223584 1.1919955 -6.71875 1.14526367 C-4.94894293 -0.6245434 -2.39750083 0.00843484 0 0 Z M-199.71875 125.14526367 C-199.71875 169.69526367 -199.71875 214.24526367 -199.71875 260.14526367 C-199.38875 260.14526367 -199.05875 260.14526367 -198.71875 260.14526367 C-198.71875 215.59526367 -198.71875 171.04526367 -198.71875 125.14526367 C-199.04875 125.14526367 -199.37875 125.14526367 -199.71875 125.14526367 Z M93.28125 611.14526367 C93.28125 611.47526367 93.28125 611.80526367 93.28125 612.14526367 C97.57125 612.14526367 101.86125 612.14526367 106.28125 612.14526367 C106.28125 611.81526367 106.28125 611.48526367 106.28125 611.14526367 C101.99125 611.14526367 97.70125 611.14526367 93.28125 611.14526367 Z " fill="#010102" transform="translate(530.71875,13.854736328125)"/>
<path d="M0 0 C1.84207687 -0.00761181 1.84207687 -0.00761181 3.72136742 -0.0153774 C5.07585653 -0.01597897 6.43034568 -0.01647809 7.78483486 -0.01688576 C9.23013105 -0.02090367 10.67542612 -0.02534244 12.12071985 -0.03016531 C16.08806074 -0.04209866 20.05538948 -0.04777164 24.02274477 -0.05234647 C28.3029466 -0.05831434 32.583134 -0.06992067 36.86332607 -0.08063698 C47.19389133 -0.10512557 57.52446134 -0.11977863 67.85504666 -0.13269705 C70.77210603 -0.13641019 73.68916492 -0.14038328 76.60622382 -0.14444971 C94.7195868 -0.16967667 112.83295055 -0.19173016 130.94632721 -0.20417786 C135.13878857 -0.20710753 139.3312499 -0.21006921 143.5237112 -0.21308327 C144.56572181 -0.21382932 145.60773242 -0.21457537 146.68131911 -0.21534403 C163.5811113 -0.22801208 180.48079864 -0.26125781 197.38054175 -0.3028851 C214.72757692 -0.34526462 232.07455829 -0.36886786 249.4216451 -0.37409842 C259.16309116 -0.37751598 268.90437301 -0.38931265 278.64576817 -0.42220116 C286.93676329 -0.45014745 295.22756052 -0.46122465 303.5185991 -0.4500057 C307.75020022 -0.44480605 311.9813865 -0.44779018 316.21292782 -0.47247124 C320.08488604 -0.49486727 323.95612913 -0.49430011 327.82809906 -0.47526737 C329.23043177 -0.47245379 330.63281198 -0.47814095 332.03506792 -0.4930803 C342.55371951 -0.59831355 342.55371951 -0.59831355 347.1354332 2.08431625 C349.47177262 6.34442911 349.50441127 9.7955586 349.44451809 14.58818626 C349.45231804 15.54448181 349.460118 16.50077736 349.46815431 17.48605156 C349.48811076 20.69301346 349.47229492 23.89879351 349.45657253 27.10576439 C349.463347 29.40378577 349.47224916 31.70180172 349.48312283 33.99980736 C349.50594274 40.24358458 349.49706838 46.48694932 349.4812274 52.73073387 C349.46858252 59.26005236 349.48030459 65.78933516 349.48815823 72.31865501 C349.49784206 83.98691426 349.48228832 95.65498498 349.45686154 107.32321453 C349.43452276 117.90186591 349.43840293 128.48024296 349.46145535 139.05888939 C349.48821545 151.34471924 349.49817178 163.63035373 349.48339403 175.91621208 C349.47559244 182.41932323 349.47457758 188.9222454 349.49107647 195.42534447 C349.50550282 201.53875636 349.49553227 207.65164937 349.46660519 213.76500511 C349.45998467 216.01080526 349.46190841 218.25664895 349.47291851 220.50243187 C349.48654676 223.56416147 349.46948999 226.62421992 349.44451809 229.68584251 C349.4612485 231.02460316 349.4612485 231.02460316 349.4783169 232.39040947 C349.41587992 236.32655377 349.05385395 238.68859333 347.14771748 242.18803024 C341.67489568 245.3833769 335.95862003 244.82458205 329.76480007 244.7719326 C328.29973427 244.77769362 326.83467569 244.78563461 325.36963224 244.79556882 C321.34282701 244.8164686 317.31661319 244.80611311 313.28980565 244.79063773 C308.94752132 244.77934082 304.60533983 244.79677866 300.26307583 244.81053734 C291.75624528 244.83279208 283.24963507 244.82795863 274.74279583 244.81347413 C267.83027674 244.80219067 260.91781949 244.80064712 254.00529385 244.80609322 C253.02216167 244.80685938 252.03902949 244.80762555 251.02610543 244.80841493 C249.02900674 244.81001353 247.03190807 244.81163459 245.03480941 244.81327789 C226.29984672 244.82754194 207.56500628 244.81113237 188.83006364 244.78427605 C172.7481486 244.76193668 156.666414 244.76581663 140.58450222 244.78886986 C121.9174345 244.81561628 103.25047397 244.82616858 84.58338976 244.81080854 C82.59356182 244.80921576 80.60373387 244.80764391 78.61390591 244.80609322 C77.63482526 244.80532184 76.65574462 244.80455046 75.64699486 244.80375571 C68.74129593 244.79943523 61.83566488 244.80673275 54.92997646 244.81849098 C46.51631925 244.83250166 38.10289532 244.82874627 29.68926489 244.80208726 C25.39491504 244.7889297 21.10095439 244.78382947 16.80660725 244.80033302 C12.87720742 244.81520587 8.94855843 244.80708939 5.01922697 244.78044526 C3.59602046 244.77484885 2.17275083 244.77772684 0.74958473 244.7898242 C-10.06063055 244.87468287 -10.06063055 244.87468287 -14.50570011 241.972332 C-17.87628966 236.29969483 -17.34063774 230.15452277 -17.34430027 223.74194908 C-17.34868252 222.80380574 -17.35306478 221.8656624 -17.35757983 220.89909047 C-17.37091952 217.76005325 -17.3771356 214.62104406 -17.38327122 211.48198509 C-17.39117545 209.22983741 -17.3994446 206.97769099 -17.40805149 204.72554588 C-17.4342156 197.33797469 -17.44956495 189.95039795 -17.46383762 182.56279564 C-17.46919799 180.02015937 -17.4745755 177.47752313 -17.47996998 174.93488693 C-17.50158277 164.36525809 -17.52047406 153.79563056 -17.53159237 143.22598553 C-17.53452191 140.48726268 -17.53748362 137.74853988 -17.54049778 135.00981712 C-17.54124383 134.32914628 -17.54198988 133.64847544 -17.54275854 132.94717821 C-17.55543369 121.90144751 -17.5886921 110.85587698 -17.63029961 99.81022129 C-17.67267422 88.46807492 -17.69587354 77.12604058 -17.70151293 65.7838046 C-17.70517512 59.41598019 -17.71729016 53.0484282 -17.74961567 46.68067932 C-17.77955546 40.6978286 -17.78605861 34.71541723 -17.77423191 28.73250771 C-17.77401005 26.53260541 -17.78240716 24.33268352 -17.79988575 22.13285065 C-17.82239076 19.13840539 -17.81436973 16.14557906 -17.79840183 13.15112877 C-17.81228392 12.27293285 -17.82616601 11.39473693 -17.84046876 10.48992902 C-17.80843258 8.06577587 -17.80843258 8.06577587 -17.19040012 4.13701439 C-12.55876042 -0.14748156 -6.02958852 0.01327957 0 0 Z " fill="#DADADA" transform="translate(573.1904001235962,360.8629856109619)"/>
<path d="M0 0 C3.45139094 1.34119559 6.44434277 2.81286956 9.5625 4.8125 C15.15587364 8.20965193 20.89366302 10.67275968 27 13 C28.20914062 13.47308594 29.41828125 13.94617188 30.6640625 14.43359375 C55.98878171 24.04472555 83.79931222 28.84574934 110.55078125 32.6484375 C112.23429229 32.8900898 113.91655047 33.14058368 115.59765625 33.3984375 C127.81921673 35.26244529 139.94255971 36.2556402 152.30078125 36.5703125 C153.02206585 36.59006889 153.74335045 36.60982529 154.48649216 36.63018036 C171.65097715 37.09659884 188.81667171 37.2214453 205.98681641 37.24023438 C209.41596001 37.24463636 212.84485447 37.2586486 216.27392578 37.28125 C246.77334679 37.47773717 276.24252571 35.41375688 306.38427734 30.42138672 C309.72869152 29.88260952 313.07844548 29.43780065 316.4375 29 C330.54877698 26.99901744 344.35392271 23.58399748 358.01611328 19.57617188 C359.76449415 19.06839697 361.52043758 18.58681792 363.27734375 18.109375 C370.34364916 16.10861928 377.05809954 13.42087378 383.8125 10.5625 C384.69655518 10.19092773 385.58061035 9.81935547 386.49145508 9.43652344 C391.41106162 7.30937662 395.89313774 4.97028916 400.31518555 1.93334961 C402 1 402 1 405 1 C405.18552759 14.42151169 405.3275929 27.84271735 405.41449738 41.26525116 C405.45621204 47.49825905 405.51277484 53.73038837 405.60351562 59.96289062 C405.69057062 65.98003241 405.73830212 71.99633031 405.75901794 78.01405334 C405.77377655 80.30743188 405.80259793 82.60076526 405.84584045 84.89378357 C405.90410271 88.11183699 405.91190548 91.32642416 405.90820312 94.54492188 C405.95134644 95.96049377 405.95134644 95.96049377 405.99536133 97.40466309 C405.92780448 102.84781458 405.01365529 105.57068191 401.15490723 109.50842285 C397.74628809 112.55522712 394.32020732 114.93380381 390.3125 117.125 C389.7129248 117.4535498 389.11334961 117.78209961 388.49560547 118.12060547 C382.46439236 121.37939332 376.30916461 124.31805546 370 127 C368.85917969 127.49242187 367.71835937 127.98484375 366.54296875 128.4921875 C355.1072181 133.20884277 343.15456763 135.73923713 331.09277344 138.33154297 C328.361646 138.92183559 325.63733738 139.53486433 322.9140625 140.16015625 C312.89744868 142.42359632 302.8709615 143.96809239 292.67407227 145.16674805 C288.253725 145.69972353 283.85776837 146.31771337 279.45874023 147.00390625 C257.30401925 150.31862548 235.35752207 150.6204246 212.98730469 150.52148438 C207.82507287 150.49887665 202.66367476 150.51214732 197.50147247 150.5352478 C176.21373128 150.61582531 155.09764824 150.09891185 133.890625 148.15625 C132.98440147 148.074319 132.07817795 147.992388 131.1444931 147.90797424 C121.36681767 147.0017221 111.79037663 145.76051321 102.18965149 143.68267822 C99.06216344 143.01330478 95.93456117 142.46168581 92.77734375 141.953125 C20.5701682 130.22624536 20.5701682 130.22624536 2 107 C0.29374913 104.07785837 -0.24873517 101.98141771 -0.24050903 98.60870361 C-0.24325836 97.73654709 -0.24600769 96.86439056 -0.24884033 95.96580505 C-0.24164978 95.01706009 -0.23445923 94.06831512 -0.22705078 93.09082031 C-0.22734283 92.08561844 -0.22763489 91.08041656 -0.22793579 90.04475403 C-0.22654254 86.72245652 -0.21098133 83.40038333 -0.1953125 80.078125 C-0.19158236 77.77455772 -0.18873539 75.47098886 -0.18673706 73.16741943 C-0.1791007 67.1043866 -0.15945209 61.04144957 -0.1373291 54.97845459 C-0.11687079 48.79163916 -0.10773537 42.60480825 -0.09765625 36.41796875 C-0.07620629 24.27860374 -0.04207022 12.13930984 0 0 Z " fill="#00A9D3" transform="translate(353,119)"/>
<path d="M0 0 C1.5868557 0.79056098 3.17337967 1.58178785 4.75976562 2.37329102 C5.64329712 2.81383316 6.52682861 3.25437531 7.43713379 3.70826721 C9.58624009 4.79145722 11.71952696 5.89642568 13.84375 7.02734375 C38.20364065 19.85006929 67.22873357 26.83984195 94.52734375 29.54296875 C98 30 98 30 101.46484375 30.921875 C107.37422486 32.47158513 113.4533974 33.07088022 119.50634766 33.80493164 C121.60013965 34.05947768 123.69264283 34.32306228 125.78515625 34.58789062 C141.42758925 36.52544231 156.83878455 37.16186842 172.5859375 37.16796875 C174.57435122 37.17119522 176.56276471 37.17456024 178.55117798 37.17805481 C182.71153307 37.1840132 186.87186751 37.18589851 191.03222656 37.18530273 C195.22856004 37.18522207 199.42478297 37.19207319 203.62109375 37.20581055 C236.73685736 37.31248431 269.21569326 36.71678114 301.99511719 31.47167969 C304.64219337 31.05616529 307.28981583 30.67708655 309.9453125 30.3203125 C340.00056328 26.17409361 373.71228015 18.74082525 399.6796875 2.28515625 C402 1 402 1 405 1 C405 30.37 405 59.74 405 90 C383.69953125 90.05607422 383.69953125 90.05607422 361.96875 90.11328125 C352.98176101 90.143551 343.994785 90.1745702 335.0078125 90.20898438 C320.73796761 90.26348862 306.4681588 90.31490077 292.19824219 90.34643555 C281.80584932 90.36941555 271.41355098 90.40281375 261.02123308 90.44870156 C255.51901886 90.4726336 250.01689826 90.49136256 244.51463318 90.49761391 C239.33376179 90.50366476 234.15312995 90.52366496 228.97234726 90.55427551 C227.07290689 90.56305566 225.17343521 90.56677837 223.27397537 90.56500816 C220.67533534 90.56335129 218.07742198 90.58008973 215.47888184 90.60127258 C214.35822429 90.59400122 214.35822429 90.59400122 213.2149272 90.58658296 C203.92447546 90.71108759 196.64126004 94.61174034 190 101 C185.0950602 107.34962516 183.84688635 112.63532352 183.68359375 120.60546875 C183.6524221 121.86427605 183.6524221 121.86427605 183.62062073 123.14851379 C183.55525982 125.82809294 183.49630286 128.50776969 183.4375 131.1875 C183.39430198 133.00456737 183.35068727 134.82162488 183.30664062 136.63867188 C183.1995922 141.09234799 183.09828681 145.54612226 183 150 C130.06005055 150.3968512 45.31438032 148.73630888 4.91796875 110.078125 C-0.37804304 104.33988004 -0.37804304 104.33988004 -0.36076355 99.57073975 C-0.36694954 98.24988373 -0.36694954 98.24988373 -0.3732605 96.90234375 C-0.36247467 95.94424805 -0.35168884 94.98615234 -0.34057617 93.99902344 C-0.34101425 92.98406799 -0.34145233 91.96911255 -0.34190369 90.92340088 C-0.33981362 87.56852993 -0.31647176 84.21415866 -0.29296875 80.859375 C-0.28737359 78.53338901 -0.28310311 76.20739948 -0.28010559 73.88140869 C-0.26865063 67.75913738 -0.23917759 61.63707954 -0.20599365 55.51489258 C-0.17530696 49.26777026 -0.16160323 43.02061346 -0.14648438 36.7734375 C-0.11430873 24.5155312 -0.0631043 12.25778335 0 0 Z " fill="#CE2EFD" transform="translate(353,251)"/>
<path d="M0 0 C1.2415686 -0.00100708 2.48313721 -0.00201416 3.7623291 -0.00305176 C35.40050769 0.01416768 66.70942676 1.84440323 97.97607422 6.79443359 C100.53474777 7.19652934 103.09496427 7.56826894 105.66015625 7.92578125 C136.62468808 12.40835852 177.90720929 20.28560137 200.875 43.25 C203.2944197 46.87912955 203.59485285 50.02376713 202.875 54.25 C195.61635717 68.72177692 177.89121524 75.63001159 163.41455078 80.45556641 C154.00343092 83.39959487 144.42525485 85.80541088 134.875 88.25 C133.91658203 88.50346191 132.95816406 88.75692383 131.97070312 89.01806641 C118.71504392 92.46176315 105.22915052 94.64319219 91.67260742 96.50268555 C90.21214285 96.7051246 88.75244785 96.91321772 87.29370117 97.12768555 C59.06224128 101.27814349 30.45608209 101.62755936 1.97583008 101.62060547 C-1.45407306 101.62044342 -4.88343908 101.63430705 -8.31323242 101.66162109 C-52.92719432 102.01051845 -98.99719665 98.36716453 -142.125 86.25 C-143.15657227 85.96398926 -144.18814453 85.67797852 -145.25097656 85.38330078 C-158.92852091 81.53836009 -171.75542939 77.28050505 -184.125 70.25 C-185.58099609 69.48042969 -185.58099609 69.48042969 -187.06640625 68.6953125 C-193.33454538 65.23896156 -198.86246522 60.77506957 -202.125 54.25 C-202.67978328 50.7826045 -202.7768649 48.3224229 -200.9140625 45.2578125 C-190.42399239 32.60077955 -173.68414386 25.41056979 -158.15234375 21.13671875 C-155.78086946 20.44210628 -153.56482163 19.6655417 -151.26953125 18.76953125 C-147.20361232 17.21714209 -143.11930326 16.18680568 -138.875 15.25 C-137.36698283 14.90845449 -135.85917047 14.56600348 -134.3515625 14.22265625 C-133.62485352 14.05781738 -132.89814453 13.89297852 -132.14941406 13.72314453 C-129.49995258 13.10391439 -126.87729323 12.39427888 -124.25 11.6875 C-118.27811738 10.16978397 -112.23860107 9.24071978 -106.14892578 8.33959961 C-102.12016641 7.74128164 -98.1384866 7.0622121 -94.15234375 6.22265625 C-89.22169424 5.21524228 -84.32312108 4.67418722 -79.3125 4.25 C-77.46351406 4.08494442 -75.61455648 3.91957077 -73.765625 3.75390625 C-72.83041016 3.67156738 -71.89519531 3.58922852 -70.93164062 3.50439453 C-68.21803077 3.25843233 -65.50754018 2.99122726 -62.796875 2.71484375 C-61.91878174 2.62654297 -61.04068848 2.53824219 -60.13598633 2.44726562 C-58.51829155 2.28397682 -56.9008884 2.11774474 -55.28393555 1.94726562 C-36.91237386 0.13052866 -18.44406234 0.01047223 0 0 Z " fill="#2AD2FD" transform="translate(555.125,35.75)"/>
<path d="M0 0 C0.75168961 0.41141739 1.50337921 0.82283478 2.27784729 1.24671936 C3.26582809 1.78671066 4.2538089 2.32670197 5.27172852 2.88305664 C6.25029312 3.41822403 7.22885773 3.95339142 8.23707581 4.504776 C28.35892842 15.39420865 49.67521734 21.43786183 72 26 C73.25474121 26.25668457 74.50948242 26.51336914 75.80224609 26.77783203 C111.28032813 33.94440349 146.7797658 36.41284041 183 39 C183 72.33 183 105.66 183 140 C150.77777778 140 150.77777778 140 138.234375 137.75390625 C133.82462572 137.01655306 129.42805265 136.78338206 124.96875 136.57421875 C116.09429235 136.13301005 107.48679306 134.81924036 98.75 133.25 C97.60996521 133.04925369 97.60996521 133.04925369 96.44689941 132.8444519 C17.42054846 118.91693118 17.42054846 118.91693118 0 95 C-0.94032835 91.80148107 -0.89133723 88.79976136 -0.79467773 85.48461914 C-0.79621101 84.09320206 -0.79621101 84.09320206 -0.79777527 82.67367554 C-0.7929221 79.62631121 -0.73858907 76.58199297 -0.68359375 73.53515625 C-0.67052946 71.41525407 -0.66056922 69.29533069 -0.65357971 67.17539978 C-0.62691983 61.60998646 -0.55821395 56.04586268 -0.48065186 50.48095703 C-0.4088987 44.79672692 -0.37704235 39.11228734 -0.34179688 33.42773438 C-0.26684208 22.2845913 -0.14745212 11.1424031 0 0 Z " fill="#7A6AE4" transform="translate(353,383)"/>
<path d="M0 0 C1.51122437 0.00918457 1.51122437 0.00918457 3.05297852 0.01855469 C10.9087358 0.18296722 17.4318131 1.28237555 24.6875 4.4375 C25.41453125 4.71464844 26.1415625 4.99179687 26.890625 5.27734375 C35.70149222 9.04104097 43.71143297 16.72657453 47.6875 25.4375 C54.4277436 42.99881496 55.92833928 64.12028047 48.29296875 81.63671875 C45.86644946 86.72933772 43.32601869 91.107427 39.6875 95.4375 C40.71617187 95.80875 40.71617187 95.80875 41.765625 96.1875 C45.18282423 97.64940341 48.28752454 99.48380735 51.4375 101.4375 C52.02660156 101.79328125 52.61570312 102.1490625 53.22265625 102.515625 C57.56384967 105.19019934 57.56384967 105.19019934 58.6875 107.4375 C59.07253376 110.97981061 59.10685959 112.80007342 57.125 115.8125 C53.58028891 118.17564073 51.92231805 118.10969334 47.6875 117.4375 C42.97621776 115.35626791 38.43248742 112.96317206 34.54296875 109.5625 C32.24744163 107.59615937 30.57069857 106.38848004 27.6875 105.4375 C24.39427854 105.92980491 21.43060498 106.7190507 18.25952148 107.69311523 C5.09702428 111.61350414 -11.79117844 111.00619865 -24.21875 105.04296875 C-26.68026564 103.61311776 -28.99753633 102.09167902 -31.3125 100.4375 C-32.6428125 99.57125 -32.6428125 99.57125 -34 98.6875 C-43.8428072 89.11071461 -50.19131701 74.9311339 -50.74609375 61.23046875 C-50.7695231 59.02877011 -50.77023177 56.82673035 -50.75 54.625 C-50.74242676 53.47515625 -50.73485352 52.3253125 -50.72705078 51.140625 C-50.48257005 38.56325139 -47.66753665 28.80222477 -40.3125 18.4375 C-39.81105469 17.72851562 -39.30960938 17.01953125 -38.79296875 16.2890625 C-29.30540609 4.2391654 -14.77389566 -0.1534693 0 0 Z " fill="#030303" transform="translate(741.3125,431.5625)"/>
<path d="M0 0 C4.5280114 4.08952809 8.69813359 9.88949555 9.2890625 16.03515625 C8.92369849 20.41952438 7.71629483 22.40078102 4.9765625 25.78515625 C1.72960575 27.40863463 -1.52482088 27.47540556 -5.0234375 26.78515625 C-7.22592553 24.73998879 -8.46304943 23.26460785 -10.0234375 20.78515625 C-10.99738271 19.24018563 -11.97680512 17.69865777 -12.9609375 16.16015625 C-13.40308594 15.42539062 -13.84523438 14.690625 -14.30078125 13.93359375 C-17.56256845 9.86560518 -20.66544654 7.98732123 -25.828125 7.21875 C-27.18462991 7.19185748 -28.54197036 7.19392162 -29.8984375 7.22265625 C-30.60371582 7.22998779 -31.30899414 7.23731934 -32.03564453 7.24487305 C-37.75758395 7.45975984 -41.9567909 8.70702194 -46.0234375 12.78515625 C-48.38429872 16.32644809 -48.59613328 17.61265843 -48.0234375 21.78515625 C-43.47960528 29.35820996 -35.6447036 31.21092533 -27.4375 33.27734375 C-25.50828988 33.74027521 -23.57859034 34.20117122 -21.6484375 34.66015625 C-8.1931644 38.04517111 4.04701849 42.05356666 11.6640625 54.5546875 C14.76202221 62.17972523 13.91709435 72.09738848 11.3515625 79.84765625 C7.43869452 88.97312108 1.21222072 93.98733893 -7.6875 97.98046875 C-21.43843787 103.06156466 -38.67649504 102.92322005 -52.0234375 96.78515625 C-60.127383 92.68331307 -65.95764374 86.37820354 -69.9609375 78.22265625 C-71.39017946 73.59863814 -72.2589171 69.59631998 -70.21484375 64.9453125 C-68.54168408 62.48478357 -66.76304437 60.99860897 -63.8984375 60.171875 C-60.52874615 59.88158064 -58.09210244 60.02868556 -55.28515625 62.015625 C-51.6397798 65.98126709 -49.58795642 70.64676166 -47.31640625 75.4765625 C-45.10924936 79.41743778 -42.06274976 81.76550012 -38.0234375 83.78515625 C-24.96718999 85.0711449 -24.96718999 85.0711449 -13.37109375 80.1953125 C-9.34037636 75.97766329 -8.67749501 72.75213408 -8.52734375 67.06640625 C-9.24003821 63.78913407 -10.68900058 62.16651653 -13.0234375 59.78515625 C-19.5647772 56.25627562 -26.89082198 54.48758734 -34.0859375 52.78515625 C-46.1434028 49.92618447 -58.98128887 45.73960967 -66.0234375 34.78515625 C-69.58018693 28.07198417 -70.36008141 20.71800879 -68.3671875 13.36328125 C-65.03366267 5.02946918 -59.42137927 -0.90246664 -51.625 -5.20703125 C-35.2133399 -11.56470138 -14.41306433 -10.24637846 0 0 Z " fill="#040404" transform="translate(664.0234375,440.21484375)"/>
<path d="M0 0 C7.89254447 6.00577458 12.0504735 13.4932697 13.6796875 23.1796875 C15.20076542 36.57259311 13.6066411 49.59003835 6 61 C2.91945332 60.38525676 0.78662295 59.37186471 -1.8125 57.625 C-7.7641666 53.82254634 -12.76089763 51.29028408 -20 52 C-22.34973818 53.89755144 -22.34973818 53.89755144 -22.125 57.125 C-22.08375 58.07375 -22.0425 59.0225 -22 60 C-21.360625 60.226875 -20.72125 60.45375 -20.0625 60.6875 C-15.86679739 62.48565826 -11.96099444 64.73904021 -8 67 C-8 67.99 -8 68.98 -8 70 C-14.79985452 71.97005131 -22.57806521 71.99242185 -29.09765625 69.0859375 C-37.34452908 64.37827704 -41.6502143 57.79753408 -45 49 C-48.16052405 35.66413024 -47.6393376 19.61023212 -40.6796875 7.75 C-37.07110219 2.38641965 -32.33959189 -1.5807624 -26.13671875 -3.609375 C-17.12635618 -5.25660765 -8.05417433 -4.46617767 0 0 Z " fill="#D9D9D9" transform="translate(759,453)"/>
<path d="M0 0 C3.53668586 0.06274765 5.50883943 0.5570305 8.25 2.8125 C12.16345743 6.92163031 11.88891306 9.85403654 11.86352539 15.28369141 C11.86367142 16.09352982 11.86381744 16.90336823 11.8639679 17.73774719 C11.86326977 20.42154596 11.85548204 23.10527581 11.84765625 25.7890625 C11.84579171 27.64708417 11.84436798 29.50510633 11.84336853 31.36312866 C11.83954615 36.25892488 11.82971823 41.15469155 11.81866455 46.05047607 C11.80844444 51.04406331 11.80386962 56.03765532 11.79882812 61.03125 C11.78809573 70.83334634 11.77102264 80.63542071 11.75 90.4375 C12.33802399 90.42639694 12.92604797 90.41529388 13.53189087 90.40385437 C19.66384662 90.29305372 25.79551705 90.21774713 31.92822266 90.1628418 C34.21544957 90.13773058 36.5025965 90.10363484 38.78955078 90.06030273 C42.08125565 89.99950419 45.3718977 89.9712556 48.6640625 89.94921875 C49.68303619 89.92341232 50.70200989 89.8976059 51.75186157 89.87101746 C56.3593962 89.86920592 59.71096974 89.87697993 63.41113281 92.82104492 C65.75 95.4375 65.75 95.4375 66.2578125 97.7890625 C66.13148438 98.53929687 66.00515625 99.28953125 65.875 100.0625 C65.77445313 100.81789063 65.67390625 101.57328125 65.5703125 102.3515625 C64.47505556 105.13664444 63.31562446 105.90769092 60.75 107.4375 C57.87294006 107.82518005 57.87294006 107.82518005 54.50024414 107.84155273 C52.60291283 107.86057899 52.60291283 107.86057899 50.66725159 107.87998962 C49.28988481 107.87793804 47.91251916 107.87494989 46.53515625 107.87109375 C45.11795298 107.87565653 43.70075192 107.8809624 42.28355408 107.88697815 C39.315328 107.8959063 36.34737102 107.89348997 33.37915039 107.88354492 C29.58144931 107.87205861 25.78467852 107.89226164 21.98709965 107.92146206 C19.06076692 107.93983817 16.13465653 107.93952884 13.20828056 107.93382454 C11.8084832 107.93367148 10.40867063 107.93970348 9.0089283 107.95211601 C7.04905448 107.96704677 5.08902745 107.95370814 3.12915039 107.93920898 C2.01536514 107.93904282 0.9015799 107.93887665 -0.24595642 107.93870544 C-4.58636818 107.21453552 -6.91998449 105.18997958 -9.54434204 101.73202515 C-10.65796025 98.110972 -10.54464004 94.47813428 -10.54052734 90.72509766 C-10.54724457 89.84657639 -10.55396179 88.96805511 -10.56088257 88.06291199 C-10.57987837 85.15907127 -10.58378756 82.25546148 -10.5859375 79.3515625 C-10.5923643 77.33140976 -10.59909257 75.31125796 -10.60610962 73.29110718 C-10.61808632 69.05602867 -10.62179003 64.82103175 -10.62060547 60.5859375 C-10.62040225 55.16301551 -10.64770558 49.74061743 -10.68214989 44.3178196 C-10.70440315 40.14504602 -10.70844349 35.97239883 -10.70738602 31.79957199 C-10.7097443 29.80051238 -10.71858059 27.80144941 -10.73405075 25.80244827 C-10.75367881 23.00415765 -10.7478852 20.20700085 -10.73583984 17.40869141 C-10.74707886 16.58563004 -10.75831787 15.76256866 -10.76989746 14.91456604 C-10.69333069 7.90355903 -7.94704404 0.22976148 0 0 Z " fill="#050505" transform="translate(822.25,431.5625)"/>
<path d="M0 0 C2.5625 0.25 2.5625 0.25 5 1 C5.33 1.66 5.66 2.32 6 3 C5.0625 5.625 5.0625 5.625 4 8 C1 8 1 8 -2 7 C-2.125 4.625 -2.125 4.625 -2 2 C-1.34 1.34 -0.68 0.68 0 0 Z " fill="#000000" transform="translate(635,629)"/>
<path d="M0 0 C14.52 0 29.04 0 44 0 C44 0.33 44 0.66 44 1 C29.48 1 14.96 1 0 1 C0 0.67 0 0.34 0 0 Z " fill="#000000" transform="translate(575,626)"/>
<path d="M0 0 C7.59 0 15.18 0 23 0 C23 0.33 23 0.66 23 1 C15.41 1 7.82 1 0 1 C0 0.67 0 0.34 0 0 Z " fill="#000000" transform="translate(898,626)"/>
<path d="M0 0 C2.64 0 5.28 0 8 0 C8 0.33 8 0.66 8 1 C5.36 1 2.72 1 0 1 C0 0.67 0 0.34 0 0 Z " fill="#000000" transform="translate(505,544)"/>
<path d="M0 0 C0.33 0 0.66 0 1 0 C1 1.98 1 3.96 1 6 C0.67 6 0.34 6 0 6 C0 4.02 0 2.04 0 0 Z " fill="#000000" transform="translate(779,77)"/>
<path d="M0 0 C4 1 4 1 4 1 Z " fill="#000000" transform="translate(477,541)"/>
<path d="M0 0 C3 1 3 1 3 1 Z " fill="#000000" transform="translate(918,340)"/>
<path d="M0 0 C2 1 2 1 2 1 Z " fill="#000000" transform="translate(418,531)"/>
<path d="M0 0 C2 1 2 1 2 1 Z " fill="#000000" transform="translate(405,528)"/>
<path d="M0 0 C2 1 2 1 2 1 Z " fill="#000000" transform="translate(395,525)"/>
<path d="M0 0 C2 1 2 1 2 1 Z " fill="#000000" transform="translate(728,38)"/>
<path d="M0 0 C2 1 2 1 2 1 Z " fill="#000000" transform="translate(666,22)"/>
<path d="" fill="#000000" transform="translate(0,0)"/>
<path d="" fill="#000000" transform="translate(0,0)"/>
<path d="" fill="#000000" transform="translate(0,0)"/>
<path d="" fill="#000000" transform="translate(0,0)"/>
<path d="" fill="#000000" transform="translate(0,0)"/>
<path d="" fill="#000000" transform="translate(0,0)"/>
<path d="" fill="#000000" transform="translate(0,0)"/>
<path d="" fill="#000000" transform="translate(0,0)"/>
<path d="" fill="#000000" transform="translate(0,0)"/>
<path d="" fill="#000000" transform="translate(0,0)"/>
<path d="" fill="#000000" transform="translate(0,0)"/>
</svg>
