<?xml version="1.0" encoding="utf-8"?>
<!-- Generator: Adobe Illustrator 19.2.1, SVG Export Plug-In . SVG Version: 6.00 Build 0)  -->
<svg version="1.1" id="layer" xmlns="http://www.w3.org/2000/svg" xmlns:xlink="http://www.w3.org/1999/xlink" x="0px" y="0px"
	 viewBox="0 0 652 652" style="enable-background:new 0 0 652 652;" xml:space="preserve">
<style type="text/css">
	.st0{fill:#E03875;}
</style>
<path class="st0" d="M106.5,420.5c-26.1,0-50.6-12.9-65.3-34.4c-14.7-21.6-17.9-49-8.4-73.4c9.5-24.3,30.4-42.4,55.9-48.3
	c25.4-5.9,52.2,1.2,71.4,18.9l-18.7,19.6c-15.3-13.7-37.2-17.2-55.9-8.9c-18.8,8.3-30.9,27-30.9,47.5c0,20.5,12.1,39.1,30.9,47.5
	c18.8,8.4,40.7,4.9,55.9-8.9l18.7,19.5C145.4,413,126.3,420.5,106.5,420.5L106.5,420.5z M170.1,380.9c-8.6,0-8.6-12.9,0-12.9
	C178.8,367.9,178.8,380.9,170.1,380.9L170.1,380.9z M170.1,380.9 M106,358.5c-22.8,0-22.8-34.3,0-34.3
	C128.8,324.2,128.8,358.5,106,358.5L106,358.5z M177.6,358.8c-5.8,0-8.6-7-4.6-11.1c4.1-4.1,11-1.2,11,4.6
	C184,355.9,181.1,358.7,177.6,358.8L177.6,358.8z M158.3,358c-8.6,0-8.6-12.9,0-12.9C166.9,345.1,166.9,358,158.3,358L158.3,358z
	 M177.6,337c-5.8,0-8.6-7-4.6-11.1c4.1-4.1,11-1.2,11,4.6C184,334.1,181.1,336.9,177.6,337L177.6,337z M158.3,337.7
	c-8.6,0-8.6-12.9,0-12.9C166.9,324.8,166.9,337.7,158.3,337.7L158.3,337.7z M170.5,315.2c-8.6,0-8.6-13,0-13
	C179.1,302.2,179.1,315.2,170.5,315.2L170.5,315.2z M170.5,315.2"/>
<path d="M245.2,318.8c0-18.4,10.7-29.1,35.7-29.1c9.2,0,18.4,1.1,27.4,3.3l-2.1,16.4c-8.1-1.5-16.3-2.3-24.6-2.5
	c-13.1,0-17.4,4.5-17.4,15.2v38.5c0,10.7,4.2,15.2,17.4,15.2c8.3-0.1,16.5-1,24.6-2.5l2.1,16.4c-9,2.2-18.2,3.3-27.4,3.3
	c-24.9,0-35.7-10.7-35.7-29.1V318.8z M348.8,393c-25.2,0-31.9-13.9-31.9-28.8v-18.6c0-14.9,6.8-28.9,32-28.9
	c25.2,0,31.9,13.9,31.9,28.9v18.6C380.7,379.2,374,393,348.8,393L348.8,393z M348.8,332.3c-9.8,0-13.6,4.4-13.6,12.7v19.7
	c0,8.3,3.8,12.7,13.6,12.7c9.8,0,13.5-4.4,13.5-12.7V345C362.4,336.8,358.6,332.3,348.8,332.3L348.8,332.3z M436.7,391.6v-51.3
	c0-3.9-1.7-5.9-5.9-5.9c-4.2,0-12.5,2.7-19.2,6.2v51h-18.4v-73.4h14l1.8,6.2c9.2-4.6,19.2-7.2,29.4-7.7c12.2,0,16.6,8.6,16.6,21.7
	v53.2H436.7z M492.8,393c-8.6-0.1-17.1-1.6-25.3-4.2l2.5-14c7.1,2,14.4,3.1,21.8,3.2c8.1,0,9.3-1.8,9.3-7.5c0-4.5-0.9-6.8-12.8-9.6
	c-17.9-4.4-20.1-8.9-20.1-23.1c0-14.8,6.5-21.2,27.4-21.2c7.4,0,14.8,0.8,22,2.5l-1.6,14.8c-6.7-1.2-13.4-1.9-20.2-2.1
	c-8,0-9.3,1.8-9.3,6.3c0,5.9,0.5,6.3,10.4,8.9c20.5,5.4,22.4,8.1,22.4,23.2C519.4,384.3,515,393,492.8,393L492.8,393z M549.8,318.2
	v51.2c0,3.9,1.6,5.9,5.9,5.9c4.2,0,12.5-2.7,19.1-6.2v-50.9h18.4v73.4h-14l-1.8-6.2c-9.2,4.6-19.2,7.2-29.4,7.7
	c-12.2,0-16.6-8.6-16.6-21.7v-53.2H549.8z M609,391.6V288.2l18.4-2.5v105.9H609z M609,391.6 M265.7,266.4v-14.1h-12.9v14.1h-6.6
	v-33.8h6.6v14.2h12.9v-14.2h6.6v33.8H265.7z M296.4,266.4h-5.2l-0.5-1.6c-2.2,1.4-4.8,2.2-7.5,2.2c-4.6,0-6.6-3.1-6.6-7.3
	c0-5,2.2-6.9,7.5-6.9h6.1v-2.5c0-2.7-0.8-3.6-5-3.6c-2.4,0-4.7,0.3-7,0.7l-0.8-4.7c2.8-0.8,5.8-1.2,8.7-1.2c8,0,10.3,2.7,10.3,8.8
	L296.4,266.4z M290,257.1h-4.7c-2.1,0-2.6,0.5-2.6,2.5c0,1.9,0.6,2.5,2.5,2.5c1.7,0,3.3-0.4,4.8-1.2L290,257.1z M309.7,267.1
	c-3-0.1-5.9-0.5-8.8-1.4l0.9-4.7c2.4,0.7,4.9,1,7.5,1c2.8,0,3.2-0.6,3.2-2.5c0-1.9-0.3-2.3-4.4-3.2c-6.2-1.4-6.9-3-6.9-7.7
	c0-4.7,2.2-7.1,9.5-7.1c2.6,0,5.1,0.3,7.6,0.8l-0.6,5c-2.3-0.4-4.7-0.6-7-0.7c-2.8,0-3.2,0.6-3.2,2.1c0,2,0.2,2.1,3.6,3
	c7.1,1.8,7.8,2.7,7.8,7.7C318.8,264.5,317.4,267.1,309.7,267.1L309.7,267.1z M338.9,266.6v-17.2c0-1.3-0.6-1.9-2-1.9
	c-2.3,0.2-4.6,0.9-6.6,2v16.9h-6.4v-34.2l6.4,0.9V244c2.9-1.4,6.1-2.2,9.3-2.4c4.2,0,5.7,2.9,5.7,7.2v17.7L338.9,266.6z
	 M350.6,238.7v-6h6.4v6H350.6z M350.6,266.6v-24.4h6.4v24.4H350.6z M362,242.4c0-6.1,3.7-9.7,12.5-9.7c3.2,0,6.3,0.4,9.4,1.1
	l-0.7,5.5c-2.8-0.5-5.7-0.8-8.5-0.9c-4.5,0-6,1.5-6,5v12.8c0,3.6,1.5,5,6,5c2.9-0.1,5.7-0.3,8.5-0.8l0.7,5.4
	c-3.1,0.7-6.3,1.1-9.4,1.1c-8.7,0-12.5-3.6-12.5-9.7V242.4z M397.9,267.1c-8.7,0-11.1-4.6-11.1-9.6v-6.3c0-5,2.3-9.6,11.1-9.6
	c8.7,0,11.1,4.6,11.1,9.6v6.1C409,262.3,406.5,267.1,397.9,267.1L397.9,267.1z M397.9,246.9c-3.4,0-4.7,1.4-4.7,4.2v6.5
	c0,2.8,1.3,4.2,4.7,4.2c3.4,0,4.7-1.5,4.7-4.2V251c0-2.8-1.3-4.2-4.7-4.2V246.9z M426.9,247.3c-2.3,1-4.6,2.2-6.7,3.6v15.7h-6.4
	v-24.4h5.4l0.4,2.7c2.1-1.4,4.3-2.4,6.7-3.2L426.9,247.3z M452.4,258.5c0,5.4-2.5,8.6-8.4,8.6c-2.3,0-4.6-0.3-6.8-0.7v10l-6.4,0.9
	V242h5l0.6,2.1c2.4-1.6,5.2-2.5,8-2.5c5.1,0,7.8,2.9,7.8,8.5L452.4,258.5z M437.2,261.2c1.9,0.4,3.7,0.6,5.7,0.7
	c2.3,0,3.2-1.1,3.2-3.3v-8.7c0-2-0.8-3.1-3.1-3.1c-2.1,0.1-4.1,0.8-5.7,2.2V261.2z M437.2,261.2"/>
</svg>
